<?xml version="1.0" encoding="UTF-8"?><svg id="b" xmlns="http://www.w3.org/2000/svg" viewBox="0 0 84.81 84.81"><defs><style>.d{fill:#ef3e42;}.e{fill:#a0c4e6;}.f{fill:#cae3b2;}.g{fill:#007bc6;}.h{fill:#429ed6;}.i{fill:#7ac143;}.j{fill:#9acd6e;}</style></defs><g id="c"><rect class="d" x="32.4" y="32.4" width="20" height="20"/><rect class="j" x="32.4" y="52.4" width="20" height="20"/><rect class="f" x="32.4" y="12.4" width="20" height="20"/><rect class="f" x="12.4" y="32.4" width="20" height="20"/><rect class="i" x="12.4" y="52.4" width="20" height="20"/><rect class="j" x="12.4" y="12.4" width="20" height="20"/><rect class="j" x="52.4" y="32.4" width="20" height="20"/><rect class="i" x="52.4" y="52.4" width="20" height="20"/><rect class="i" x="52.4" y="12.4" width="20" height="20"/><path class="g" d="M52.4,1.2v11.21h19.97c-5.41-5.41-12.28-9.35-19.97-11.21Z"/><path class="e" d="M52.4,1.2c-3.21-.77-6.55-1.2-10-1.2s-6.79.42-10,1.2v11.21h20V1.2Z"/><path class="g" d="M72.4,12.43v19.97h11.21c-1.86-7.68-5.8-14.56-11.21-19.97Z"/><path class="h" d="M72.4,52.4h11.21c.78-3.21,1.2-6.55,1.2-10s-.42-6.79-1.2-10h-11.21v20Z"/><path class="g" d="M83.61,52.4h-11.21v19.97c5.41-5.41,9.35-12.28,11.21-19.97Z"/><path class="g" d="M72.37,72.4h-19.97v11.21c7.69-1.86,14.56-5.8,19.97-11.21Z"/><path class="h" d="M32.4,83.61c3.21.78,6.56,1.2,10,1.2s6.79-.42,10-1.2v-11.21h-20v11.21Z"/><path class="g" d="M32.4,83.61v-11.21H12.44c5.41,5.41,12.29,9.35,19.97,11.21Z"/><path class="g" d="M12.4,72.37v-19.97H1.2c1.86,7.69,5.8,14.56,11.21,19.97Z"/><path class="e" d="M1.2,52.4h11.21v-20H1.2c-.77,3.21-1.2,6.56-1.2,10,0,3.45.42,6.79,1.2,10Z"/><path class="h" d="M12.4,12.43C7,17.85,3.06,24.72,1.2,32.4h11.21V12.43Z"/><path class="h" d="M12.44,12.4h19.97V1.2c-7.68,1.86-14.56,5.8-19.97,11.21Z"/></g></svg>