<?xml version="1.0" encoding="UTF-8"?><svg id="b" xmlns="http://www.w3.org/2000/svg" viewBox="0 0 465.97 90.93"><defs><style>.d{fill:#ef3e42;}.e{fill:#a0c4e6;}.f{fill:#cae3b2;}.g{fill:#007bc6;}.h{fill:#429ed6;}.i{fill:#7ac143;}.j{fill:#9acd6e;}</style></defs><g id="c"><path d="M134.34,80.67c0,3.55-1.7,5.93-4.45,5.93-1.25,0-2.24-.56-3.01-1.5l-.19,1.25h-1.74v-15.89l1.98-.24v6.21c.77-1.05,1.83-1.68,3.2-1.68,2.56,0,4.22,2.13,4.22,5.91ZM132.21,80.67c0-3.22-1.05-4.34-2.65-4.34-1.25,0-2.06.86-2.65,1.76v5.42c.58.9,1.48,1.53,2.49,1.53,1.66,0,2.8-1.27,2.8-4.36Z"/><path d="M142.04,86.41c-.8,2.41-2.13,4.17-5.27,4.52l-.21-1.55c2.3-.39,2.95-1.27,3.59-3.03h-.67l-3.81-11.33h2.11l3.03,9.89,2.97-9.89h2.04l-3.78,11.39Z"/><path d="M165.94,86.35h-2.62l-2.73-12.4-2.75,12.4h-2.56l-3.01-14.81h2l2.39,13.03,2.86-13.03h2.17l2.92,13.03,2.47-13.03h1.87l-3.01,14.81Z"/><path d="M180.38,80.67c0,3.5-1.85,5.93-5.05,5.93s-5.05-2.32-5.05-5.91,1.85-5.93,5.07-5.93,5.03,2.32,5.03,5.91ZM172.41,80.69c0,2.94,1.03,4.32,2.92,4.32s2.92-1.38,2.92-4.34-1.03-4.32-2.9-4.32-2.95,1.38-2.95,4.34Z"/><path d="M183.34,84.11v-13.65l1.98-.24v13.85c0,.6.19.9.71.9.28,0,.52-.04.73-.13l.52,1.38c-.43.24-.99.39-1.57.39-1.44,0-2.36-.88-2.36-2.49Z"/><path d="M195.31,85.83c-.75.52-1.57.77-2.54.77-1.91,0-3.05-1.12-3.05-3.22v-6.84h-1.98v-1.53h1.98v-2.56l1.98-.24v2.79h2.69l-.21,1.53h-2.47v6.75c0,1.14.37,1.68,1.35,1.68.49,0,.95-.15,1.51-.45l.75,1.31Z"/><path d="M205.67,81.36h-7.22c.19,2.62,1.42,3.63,3.05,3.63,1.12,0,1.96-.3,2.95-.99l.86,1.18c-1.12.88-2.39,1.42-3.96,1.42-3.16,0-5.01-2.21-5.01-5.81s1.78-6.04,4.71-6.04,4.66,2.13,4.66,5.59c0,.39-.02.75-.04,1.01ZM203.75,79.77c0-2.21-.88-3.44-2.67-3.44-1.51,0-2.49,1.06-2.65,3.57h5.31v-.13Z"/><path d="M214.68,74.89l-.37,1.93c-.34-.09-.58-.13-.99-.13-1.42,0-2.24,1.01-2.71,3.18v6.47h-1.98v-11.33h1.7l.19,2.3c.6-1.7,1.65-2.56,3.03-2.56.37,0,.77.04,1.12.13Z"/><path d="M224.17,76.05l-.84,1.25c-1.01-.65-1.89-.97-2.95-.97-1.29,0-2.09.58-2.09,1.48s.6,1.35,2.43,1.83c2.39.6,3.76,1.55,3.76,3.53,0,2.36-2.17,3.44-4.47,3.44-1.91,0-3.29-.62-4.28-1.48l1.05-1.2c.9.69,1.96,1.1,3.18,1.1,1.48,0,2.43-.65,2.43-1.72s-.56-1.55-2.75-2.13c-2.45-.64-3.42-1.7-3.42-3.29,0-1.81,1.74-3.12,4.08-3.12,1.59,0,2.77.47,3.85,1.29Z"/><path d="M235.13,86.35h-2.04v-14.81h2.04v14.81ZM237.58,78.31l6.02,8.04h-2.52l-5.85-7.91,5.63-6.9h2.32l-5.61,6.77Z"/><path d="M245.5,84.11v-13.65l1.98-.24v13.85c0,.6.19.9.71.9.28,0,.52-.04.73-.13l.52,1.38c-.43.24-.99.39-1.57.39-1.44,0-2.36-.88-2.36-2.49Z"/><path d="M259.95,86.35h-1.7l-.15-1.76c-.86,1.38-1.91,2.02-3.53,2.02-1.98,0-3.16-1.25-3.16-3.46v-8.13h1.98v7.91c0,1.55.52,2.13,1.74,2.13s2.15-.82,2.84-1.96v-8.08h1.98v11.33h0Z"/><path d="M274.32,86.35h-2.69l-1.98-9.55-2.04,9.55h-2.62l-2.64-11.33h1.98l2.04,9.95,2.24-9.95h2.21l2.13,9.95,2.06-9.95h1.89l-2.58,11.33Z"/><path d="M287.78,81.36h-7.23c.19,2.62,1.42,3.63,3.05,3.63,1.12,0,1.96-.3,2.95-.99l.86,1.18c-1.12.88-2.39,1.42-3.96,1.42-3.16,0-5.01-2.21-5.01-5.81s1.78-6.04,4.71-6.04,4.67,2.13,4.67,5.59c0,.39-.02.75-.04,1.01ZM285.87,79.77c0-2.21-.88-3.44-2.67-3.44-1.51,0-2.49,1.06-2.64,3.57h5.31v-.13h0Z"/><path d="M296.79,74.89l-.36,1.93c-.34-.09-.58-.13-.99-.13-1.42,0-2.24,1.01-2.71,3.18v6.47h-1.98v-11.33h1.7l.19,2.3c.6-1.7,1.65-2.56,3.03-2.56.37,0,.77.04,1.12.13Z"/><path d="M141.47,37.11h-10.89l-2.05,9.24h-7.24l10.43-39.39h8.84l10.37,39.39h-7.41l-2.05-9.24ZM140.27,31.64l-4.27-19.15-4.22,19.15h8.49Z"/><path d="M176.98,10.95l-3.48,3.93c-2.39-2.17-4.67-3.19-7.35-3.19-3.08,0-5.07,1.82-5.07,4.79,0,2.79,1.31,4.33,6.84,6.39,6.1,2.39,9.98,5.19,9.98,12.26s-4.96,12.09-13.11,12.09c-5.7,0-9.58-2.22-12.6-5.36l3.71-3.99c2.51,2.22,5.13,3.76,8.49,3.76,3.71,0,5.99-2.34,5.99-6.04,0-3.25-1.43-5.02-6.5-6.9-7.18-2.74-10.26-6.04-10.26-11.69,0-6.39,5.07-10.89,11.97-10.89,4.96,0,8.38,1.71,11.4,4.84Z"/><path d="M208.39,19.44c0,8.95-5.59,13.06-14.37,13.06h-2.79v13.85h-7.3V6.95h9.58c9.63,0,14.88,4.22,14.88,12.48ZM200.86,19.5c0-5.02-2.28-7.18-7.18-7.18h-2.45v14.76h2.39c4.79,0,7.24-1.82,7.24-7.58Z"/><path d="M221.27,46.35h-7.3V6.95h7.3v39.39Z"/><path d="M258.66,37.11h-10.89l-2.05,9.24h-7.24l10.43-39.39h8.84l10.37,39.39h-7.41l-2.05-9.24ZM257.46,31.64l-4.27-19.15-4.22,19.15h8.49Z"/><path d="M279.41,46.35h-7.01V4.1l7.01-.74v42.98ZM286.76,29.47l9.24,16.87h-7.64l-8.67-16.47,8.61-13.68h6.95l-8.49,13.28Z"/><path d="M321.59,42.41l-1.42,4.68c-3.02-.34-5.02-1.43-5.99-4.28-1.94,3.14-4.73,4.39-7.75,4.39-5.24,0-8.49-3.76-8.49-9.29,0-6.5,4.27-10.03,12.26-10.03h2.68v-1.99c0-3.93-1.37-5.3-4.56-5.3-2.11,0-4.33.57-6.95,1.54l-1.6-4.62c3.25-1.42,6.73-2.17,9.75-2.17,7.01,0,10.26,3.59,10.26,10.15v13.45c0,2.17.57,2.91,1.82,3.48ZM312.87,38.37v-6.33h-2c-4.05,0-5.93,1.77-5.93,5.36,0,3.14,1.25,4.73,3.42,4.73,1.94,0,3.48-1.37,4.5-3.76Z"/><path d="M350.32,4.1v42.24h-6.21l-.34-3.59c-1.65,2.62-3.99,4.45-7.3,4.45-6.61,0-10.03-5.99-10.03-15.9s4.28-15.96,10.49-15.96c2.79,0,4.9,1.31,6.39,3.19V3.36l7.01.74ZM343.3,38.25v-14.48c-1.25-1.94-2.68-3.14-4.56-3.14-2.96,0-5.02,2.91-5.02,10.6s1.88,10.66,4.67,10.66c2.11,0,3.59-1.37,4.9-3.65Z"/><path d="M380.24,33.46h-16.3c.4,6.5,2.62,8.38,5.98,8.38,2.45,0,4.33-.8,6.56-2.51l2.91,3.88c-2.51,2.34-5.76,3.99-9.92,3.99-8.21,0-12.65-5.87-12.65-15.68s4.22-16.19,11.97-16.19c7.24,0,11.57,5.19,11.57,15.22,0,.97-.06,2.11-.11,2.91ZM363.82,10.38l-1.94-3.42,10.38-6.95,2.91,5.24-11.35,5.13ZM373.57,28.5c0-5.59-1.42-8.21-4.73-8.21-2.85,0-4.62,2.05-4.9,8.61h9.63v-.4h0Z"/><path d="M421.57,24.51v21.83h-6.9v-21.03c0-3.53-.97-4.62-2.51-4.62-1.82,0-3.31,1.65-4.67,4.28v21.38h-6.84v-21.03c0-3.53-1.03-4.62-2.51-4.62-1.88,0-3.36,1.65-4.67,4.28v21.38h-6.9v-30.16h6.1l.46,3.93c1.88-2.91,4.27-4.79,7.47-4.79s5.3,1.88,6.33,5.07c1.94-3.08,4.33-5.07,7.7-5.07,4.16,0,6.95,3.48,6.95,9.18Z"/><path d="M437.01,5.36c0,2.45-1.71,4.27-4.27,4.27s-4.27-1.82-4.27-4.27,1.77-4.27,4.27-4.27c2.57,0,4.27,1.88,4.27,4.27ZM436.27,46.35h-7.01v-30.16h7.01v30.16Z"/><path d="M465.97,42.41l-1.42,4.68c-3.02-.34-5.02-1.43-5.99-4.28-1.94,3.14-4.73,4.39-7.75,4.39-5.24,0-8.49-3.76-8.49-9.29,0-6.5,4.27-10.03,12.26-10.03h2.68v-1.99c0-3.93-1.37-5.3-4.56-5.3-2.11,0-4.33.57-6.95,1.54l-1.6-4.62c3.25-1.42,6.73-2.17,9.75-2.17,7.01,0,10.26,3.59,10.26,10.15v13.45c0,2.17.57,2.91,1.82,3.48ZM457.25,38.37v-6.33h-2c-4.05,0-5.93,1.77-5.93,5.36,0,3.14,1.25,4.73,3.42,4.73,1.94,0,3.48-1.37,4.5-3.76Z"/><path d="M85.69,78.57h1.67c.34,0,.64.04.86.13.7.21,1.05.74,1.05,1.35,0,.87-.65,1.32-1.27,1.46v.02c.36.19.94,1.25,1.58,2.43h-1.25c-.7-1.28-1.12-2.13-1.36-2.15h-.18v2.15h-1.09v-5.4h0ZM87.05,80.96c.56,0,1.05-.22,1.05-.78,0-.33-.14-.58-.44-.66-.16-.07-.34-.08-.59-.08h-.29v1.52h.26Z"/><path d="M92.4,81.35c0,2.76-2.24,5-5,5s-5-2.24-5-5,2.24-5,5-5,5,2.24,5,5ZM87.4,77.4c-2.18,0-3.95,1.77-3.95,3.95s1.77,3.95,3.95,3.95,3.95-1.77,3.95-3.95-1.76-3.95-3.95-3.95Z"/><rect class="d" x="32.4" y="36.35" width="20" height="20"/><rect class="j" x="32.4" y="56.35" width="20" height="20"/><rect class="f" x="32.4" y="16.35" width="20" height="20"/><rect class="f" x="12.4" y="36.35" width="20" height="20"/><rect class="i" x="12.4" y="56.35" width="20" height="20"/><rect class="j" x="12.4" y="16.35" width="20" height="20"/><rect class="j" x="52.4" y="36.35" width="20" height="20"/><rect class="i" x="52.4" y="56.35" width="20" height="20"/><rect class="i" x="52.4" y="16.35" width="20" height="20"/><path class="g" d="M52.4,5.14v11.21h19.97c-5.41-5.41-12.28-9.35-19.97-11.21Z"/><path class="e" d="M52.4,5.14c-3.21-.77-6.55-1.2-10-1.2s-6.79.42-10,1.2v11.21h20V5.14Z"/><path class="g" d="M72.4,16.38v19.97h11.21c-1.86-7.68-5.8-14.56-11.21-19.97Z"/><path class="h" d="M72.4,56.35h11.21c.78-3.21,1.2-6.55,1.2-10s-.42-6.79-1.2-10h-11.21v20Z"/><path class="g" d="M83.61,56.35h-11.21v19.97c5.41-5.41,9.35-12.28,11.21-19.97Z"/><path class="g" d="M72.37,76.35h-19.97v11.21c7.69-1.86,14.56-5.8,19.97-11.21Z"/><path class="h" d="M32.4,87.55c3.21.78,6.56,1.2,10,1.2s6.79-.42,10-1.2v-11.21h-20v11.21Z"/><path class="g" d="M32.4,87.55v-11.21H12.44c5.41,5.41,12.29,9.35,19.97,11.21Z"/><path class="g" d="M12.4,76.32v-19.97H1.2c1.86,7.69,5.8,14.56,11.21,19.97Z"/><path class="e" d="M1.2,56.35h11.21v-20H1.2c-.77,3.21-1.2,6.56-1.2,10,0,3.45.42,6.79,1.2,10Z"/><path class="h" d="M12.4,16.38C7,21.79,3.06,28.66,1.2,36.35h11.21v-19.97Z"/><path class="h" d="M12.44,16.35h19.97V5.14c-7.68,1.86-14.56,5.8-19.97,11.21Z"/></g></svg>