<?xml version="1.0" encoding="UTF-8"?><svg id="b" xmlns="http://www.w3.org/2000/svg" viewBox="0 0 225.59 84.81"><defs><style>.d{fill:#ef3e42;}.e{fill:#a0c4e6;}.f{fill:#cae3b2;}.g{fill:#007bc6;}.h{fill:#429ed6;}.i{fill:#7ac143;}.j{fill:#9acd6e;}</style></defs><g id="c"><rect class="d" x="32.4" y="32.4" width="20" height="20"/><rect class="j" x="32.4" y="52.4" width="20" height="20"/><rect class="f" x="32.4" y="12.4" width="20" height="20"/><rect class="f" x="12.4" y="32.4" width="20" height="20"/><rect class="i" x="12.4" y="52.4" width="20" height="20"/><rect class="j" x="12.4" y="12.4" width="20" height="20"/><rect class="j" x="52.4" y="32.4" width="20" height="20"/><rect class="i" x="52.4" y="52.4" width="20" height="20"/><rect class="i" x="52.4" y="12.4" width="20" height="20"/><path class="g" d="M52.4,1.2v11.21h19.97c-5.41-5.41-12.28-9.35-19.97-11.21Z"/><path class="e" d="M52.4,1.2c-3.21-.77-6.55-1.2-10-1.2s-6.79.42-10,1.2v11.21h20V1.2Z"/><path class="g" d="M72.4,12.43v19.97h11.21c-1.86-7.68-5.8-14.56-11.21-19.97Z"/><path class="h" d="M72.4,52.4h11.21c.78-3.21,1.2-6.55,1.2-10s-.42-6.79-1.2-10h-11.21v20Z"/><path class="g" d="M83.61,52.4h-11.21v19.97c5.41-5.41,9.35-12.28,11.21-19.97Z"/><path class="g" d="M72.37,72.4h-19.97v11.21c7.69-1.86,14.56-5.8,19.97-11.21Z"/><path class="h" d="M32.4,83.61c3.21.78,6.56,1.2,10,1.2s6.79-.42,10-1.2v-11.21h-20v11.21Z"/><path class="g" d="M32.4,83.61v-11.21H12.44c5.41,5.41,12.29,9.35,19.97,11.21Z"/><path class="g" d="M12.4,72.37v-19.97H1.2c1.86,7.69,5.8,14.56,11.21,19.97Z"/><path class="e" d="M1.2,52.4h11.21v-20H1.2c-.77,3.21-1.2,6.56-1.2,10,0,3.45.42,6.79,1.2,10Z"/><path class="h" d="M12.4,12.43C7,17.85,3.06,24.72,1.2,32.4h11.21V12.43Z"/><path class="h" d="M12.44,12.4h19.97V1.2c-7.68,1.86-14.56,5.8-19.97,11.21Z"/><path d="M130.33,54.89h-13l-2.45,11.02h-8.64l12.46-47.03h10.55l12.38,47.03h-8.85l-2.45-11.02ZM128.9,48.36l-5.1-22.87-5.04,22.87h10.14Z"/><path d="M172.72,23.65l-4.15,4.7c-2.86-2.59-5.58-3.81-8.78-3.81-3.67,0-6.06,2.18-6.06,5.72,0,3.33,1.57,5.17,8.17,7.62,7.28,2.86,11.91,6.19,11.91,14.63s-5.92,14.43-15.65,14.43c-6.8,0-11.43-2.66-15.04-6.4l4.42-4.76c2.99,2.66,6.12,4.49,10.14,4.49,4.42,0,7.15-2.79,7.15-7.21,0-3.88-1.7-5.99-7.76-8.23-8.58-3.27-12.25-7.21-12.25-13.95,0-7.62,6.06-13,14.29-13,5.92,0,10,2.04,13.61,5.78Z"/><path d="M210.22,33.79c0,10.68-6.67,15.59-17.15,15.59h-3.33v16.54h-8.71V18.89h11.43c11.5,0,17.76,5.04,17.76,14.9ZM201.23,33.86c0-5.99-2.72-8.58-8.58-8.58h-2.93v17.63h2.86c5.72,0,8.64-2.18,8.64-9.05Z"/><path d="M225.59,65.92h-8.71V18.89h8.71v47.03Z"/></g></svg>